# xmcd
#
# Track frame offsets:
#	150
#	23147
#	42257
#
# Disc length: 781 seconds
#
# Revision: 0
# Processed by: cddbd v1.5.1PL2 Copyright (c) Steve Scherf et al.
# Submitted via: dBpowerAMP V4.0
#
DISCID=1b030b03
DTITLE=Monkey Swallows The Universe - Science CDS
DYEAR=1900
DGENRE=Undefined
TTITLE0=Science
TTITLE1=Happiness
TTITLE2=Florence
EXTD=
EXTT0=
EXTT1=
EXTT2=
PLAYORDER=
